<svg width="640" height="480" xmlns="http://www.w3.org/2000/svg" xmlns:svg="http://www.w3.org/2000/svg">
 <!-- Created with SVG-edit - http://svg-edit.googlecode.com/ -->
 <g>
  <title>Layer 1</title>
  <circle id="svg_11" r="150.80119" cy="235" cx="326" stroke-linecap="null" stroke-linejoin="null" stroke-dasharray="null" stroke-width="5" stroke="#000000" fill="#007fff"/>
  <polygon stroke-width="5" stroke="#000000" points="327,122.25906085968018 353.03675842285156,197.16348266601562 432.3208923339844,198.77916717529297 369.12835693359375,246.68833923339844 392.0918884277344,322.59130859375 327,277.29637145996094 261.90810775756836,322.59130859375 284.87164306640625,246.68833923339844 221.67910861968994,198.77916717529297 300.96324157714844,197.16348266601562 327,122.25906085968018 353.03675842285156,197.16348266601562 " strokeWidth="5" strokecolor="#000000" fill="#FF0000" orient="point" r2="44.29638" r="110.74094" point="5" shape="star" id="svg_2" cy="124" cx="119"/>
  <polygon stroke-width="5" stroke="#000000" points="327,185.5897216796875 338.3819274902344,218.3341064453125 373.0409240722656,219.0404052734375 345.4163513183594,239.9838409423828 355.4548645019531,273.16473388671875 327,253.36412048339844 298.545166015625,273.16473388671875 308.5836181640625,239.9838409423828 280.9590759277344,219.0404052734375 315.6180419921875,218.3341064453125 327,185.5897216796875 338.3819274902344,218.3341064453125 " strokeWidth="5" strokecolor="#000000" fill="#bfbfbf" orient="point" r2="19.36411" r="48.41028" point="5" shape="star" id="svg_3" cy="114" cx="106"/>
  <rect stroke="#000000" id="svg_13" height="1" width="0" y="269" x="202" stroke-linecap="null" stroke-linejoin="null" stroke-dasharray="null" stroke-width="5" fill="#bfbfbf"/>
 </g>
</svg>